<svg xmlns:xlink="http://www.w3.org/1999/xlink"  xmlns="http://www.w3.org/2000/svg" width="8" height="16" fill="none"><path fill="#fff" d="M7.802 6.58 7.56 8.67a.391.391 0 0 1-.384.35H4.994l-.01 6.198a.28.28 0 0 1-.274.282H2.5a.273.273 0 0 1-.273-.284V9.02H.591a.391.391 0 0 1-.387-.395l-.009-2.09a.393.393 0 0 1 .388-.4h1.644V4.119C2.227 1.775 3.618.5 5.658.5H7.33a.393.393 0 0 1 .389.398v1.76a.393.393 0 0 1-.39.397H6.305c-1.108 0-1.324.546-1.324 1.334v1.747h2.437a.393.393 0 0 1 .385.443Z"/></svg>