<svg xmlns:xlink="http://www.w3.org/1999/xlink"  xmlns="http://www.w3.org/2000/svg" width="22" height="23" fill="none"><path fill="#fff" d="M15.162 12.678a49.33 49.33 0 0 1-3.304 4.424 1.13 1.13 0 0 1-.484.327v4.834l4.549-1.624-.761-7.961Zm-5.022 4.42a48.489 48.489 0 0 1-3.303-4.42l-.75 7.96 4.537 1.624V17.43a1.1 1.1 0 0 1-.484-.33Zm6.537 3.578 4.695 1.677a.375.375 0 0 0 .502-.424l-1.5-7.875a.374.374 0 0 0-.225-.274l-4.297-1.789.825 8.685ZM.627 22.353l4.695-1.677.825-8.685-4.29 1.789a.375.375 0 0 0-.225.274l-1.5 7.875a.375.375 0 0 0 .495.424Zm10.657-5.734C11.52 16.34 17 9.83 17 6.625a6 6 0 1 0-12 0c0 3.206 5.479 9.716 5.715 9.994a.376.376 0 0 0 .57 0Zm-2.91-9.994a2.625 2.625 0 1 1 5.25 0 2.625 2.625 0 0 1-5.25 0Z"/></svg>