<svg xmlns:xlink="http://www.w3.org/1999/xlink"  xmlns="http://www.w3.org/2000/svg" width="16" height="16" fill="none"><path fill="#fff" d="M4.643 2.545a2.046 2.046 0 1 1-4.091 0 2.046 2.046 0 0 1 4.09 0Zm-.464 3.41v9.036a.506.506 0 0 1-.506.509H1.517a.506.506 0 0 1-.507-.507V5.955a.507.507 0 0 1 .507-.508h2.156a.507.507 0 0 1 .506.508Zm11.27 4.704v4.375a.464.464 0 0 1-.467.466h-2.318a.466.466 0 0 1-.467-.466v-4.24c0-.633.186-2.77-1.654-2.77-1.425 0-1.715 1.462-1.773 2.12v4.89a.466.466 0 0 1-.46.466H6.073a.466.466 0 0 1-.465-.466V5.915a.465.465 0 0 1 .465-.466H8.31a.466.466 0 0 1 .466.466v.788c.53-.793 1.313-1.406 2.987-1.406 3.706 0 3.684 3.461 3.684 5.362Z"/></svg>