<svg xmlns:xlink="http://www.w3.org/1999/xlink"  xmlns="http://www.w3.org/2000/svg" width="182" height="46" fill="none"><path fill="#1E1E1E" d="M7.776 3.676A2.318 2.318 0 0 0 5.82 6.308a2.318 2.318 0 0 0 1.955-2.632Zm17.236 37.053c.004-.033.02-.062.02-.096 0-.056-.021-.105-.033-.158a1.972 1.972 0 0 0 1.234-2.076c-.823.038-1.525.672-1.8 1.513-.05-.011-.1-.031-.154-.031-.055 0-.103.02-.155.031-.274-.841-.976-1.475-1.8-1.513a1.972 1.972 0 0 0 1.235 2.076c-.012.052-.032.102-.032.158 0 .034.015.063.019.096a2.31 2.31 0 0 0-1.639 1.927c1.029.057 1.888-.495 2.207-1.304.055.013.107.033.165.033.059 0 .11-.02.165-.033.319.809 1.178 1.36 2.207 1.304a2.31 2.31 0 0 0-1.639-1.927Zm3.177-2.622c-1.035.152-1.793 1.246-1.696 2.418 1.188-.177 1.947-1.264 1.696-2.418Zm-1.694 2.418c.098 1.182 1.232 1.98 2.533 1.777-.252-1.155-1.385-1.947-2.533-1.777Zm3.615-2.901c-1.015.253-1.659 1.422-1.448 2.572 1.167-.288 1.812-1.451 1.448-2.572Z"/><path fill="#1E1E1E" d="M28.66 40.196c.216 1.173 1.423 1.85 2.697 1.519-.365-1.126-1.57-1.796-2.697-1.519Zm3.311-3.243c-.984.352-1.509 1.58-1.185 2.703 1.132-.402 1.66-1.624 1.185-2.703Zm-1.184 2.704c.331 1.145 1.6 1.698 2.835 1.243-.475-1.084-1.742-1.63-2.835-1.243Zm2.973-3.555c-.946.447-1.349 1.716-.912 2.806 1.085-.515 1.49-1.779.911-2.806Zm-.91 2.806c.442 1.103 1.761 1.531 2.945.957-.58-1.03-1.896-1.454-2.944-.957Zm2.603-3.831c-.897.54-1.176 1.835-.63 2.883 1.027-.625 1.309-1.915.63-2.883Z"/><path fill="#1E1E1E" d="M34.823 37.958c.546 1.047 1.904 1.35 3.026.661-.678-.966-2.034-1.263-3.026-.66Zm2.215-4.073c-.834.632-.991 1.94-.343 2.93.96-.721 1.12-2.025.343-2.93Zm-.342 2.931c.645.986 2.033 1.162 3.075.36-.762-.886-2.147-1.057-3.075-.36Zm1.8-4.272c-.762.718-.797 2.027-.053 2.95.885-.812.925-2.117.053-2.95Zm-.052 2.95c.737.915 2.144.962 3.095.055-.836-.797-2.24-.84-3.095-.055Zm1.372-4.429c-.68.795-.597 2.094.237 2.942.805-.893.717-2.194-.237-2.942Z"/><path fill="#1E1E1E" d="M40.05 34.008c.822.837 2.236.753 3.086-.248-.906-.708-2.308-.614-3.085.248Zm.934-4.542c-.591.862-.39 2.14.526 2.903.72-.962.497-2.253-.526-2.903Z"/><path fill="#1E1E1E" d="M41.509 32.369c.897.751 2.305.535 3.046-.55-.973-.616-2.35-.379-3.046.55Zm.478-4.609c-.497.92-.178 2.165.81 2.836.628-1.025.272-2.291-.81-2.836Zm.81 2.837a1.948 1.948 0 0 0 1.613.258c.532-.156 1.084-.52 1.364-1.106-1.03-.516-2.37-.14-2.977.848Zm1.19-3.505c-.179-.49-.63-.912-1.17-1.128-.17.505-.206 1.015 0 1.516.192.493.565.951 1.087 1.226a2.034 2.034 0 0 0 .083-1.614Z"/><path fill="#1E1E1E" d="M45.136 27.594c-.527.205-.974.58-1.23 1.111a1.953 1.953 0 0 0 1.632.098c.513-.208 1.033-.623 1.247-1.236-.557-.225-1.11-.17-1.649.027Zm-.394-2.493c-.227-.47-.72-.845-1.277-1.006-.115.52-.105 1.03.15 1.508.24.471.656.89 1.203 1.111a2.03 2.03 0 0 0-.076-1.613Zm1.193.386a2.242 2.242 0 0 0-1.116 1.228 1.96 1.96 0 0 0 1.635-.066c.489-.258.97-.72 1.118-1.354-.578-.168-1.122-.058-1.637.192Zm-.635-2.441c-.273-.445-.802-.77-1.371-.875-.063.53-.003 1.035.298 1.486.286.445.741.82 1.308.986a2.03 2.03 0 0 0-.236-1.597Z"/><path fill="#1E1E1E" d="M46.522 23.312a2.244 2.244 0 0 0-.989 1.332 1.957 1.957 0 0 0 1.62-.228c.461-.305.894-.814.978-1.458-.592-.11-1.121.053-1.609.354Zm-.879-2.367c-.314-.416-.87-.687-1.448-.735-.016.534.1 1.031.442 1.45.329.415.82.743 1.4.851a2.03 2.03 0 0 0-.394-1.566Z"/><path fill="#1E1E1E" d="M46.037 22.512a1.955 1.955 0 0 0 1.59-.387c.428-.35.804-.9.83-1.547-.599-.05-1.112.163-1.57.51a2.24 2.24 0 0 0-.85 1.424ZM44.28 18.23c-.024 1.047.865 1.991 2.049 2.11.06-1.2-.847-2.145-2.05-2.11Z"/><path fill="#1E1E1E" d="M46.328 20.34c1.167.119 2.206-.849 2.228-2.161-1.159.034-2.168 1.002-2.228 2.16Zm-2.168-4.09c.12 1.04 1.072 1.896 2.255 1.9-.013-1.203-1.087-2.05-2.256-1.9Zm2.257 1.9c1.178.004 2.144-1.06 1.995-2.368-1.175.15-2.005 1.206-1.995 2.368Zm-2.572-3.855c.216 1.024 1.26 1.78 2.435 1.667-.136-1.195-1.284-1.932-2.435-1.667Z"/><path fill="#1E1E1E" d="M46.28 15.962c1.175-.11 2.019-1.264 1.748-2.553-1.15.265-1.877 1.4-1.749 2.553Zm-2.937-3.58c.322.995 1.42 1.646 2.583 1.418-.25-1.177-1.47-1.795-2.583-1.418Zm2.583 1.417c1.155-.226 1.895-1.461 1.492-2.716-1.125.38-1.732 1.58-1.492 2.716Zm-3.281-3.269c.42.96 1.583 1.496 2.718 1.152-.365-1.146-1.645-1.638-2.718-1.151Zm2.718 1.15c1.126-.338 1.733-1.64 1.209-2.848-1.08.488-1.56 1.741-1.209 2.849Zm-3.59-2.926c.508.915 1.725 1.33 2.815.878-.482-1.102-1.791-1.471-2.816-.878Zm2.816.877c1.092-.452 1.561-1.804.923-2.955-1.02.59-1.387 1.891-.923 2.955Zm-.973-1.962c-.585-1.051-1.933-1.284-2.888-.597.601.858 1.844 1.157 2.888.597Z"/><path fill="#1E1E1E" d="M44.244 4.635c-.963.692-1.191 2.017-.629 3.033 1.04-.556 1.381-1.953.629-3.033ZM20.363 38.107c-.252 1.154.507 2.241 1.696 2.418.097-1.172-.661-2.266-1.697-2.418Z"/><path fill="#1E1E1E" d="M19.528 42.301c1.3.203 2.435-.595 2.533-1.777-1.148-.17-2.281.622-2.533 1.777Zm-1.084-4.677c-.364 1.12.282 2.284 1.448 2.572.211-1.15-.433-2.32-1.448-2.572Z"/><path fill="#1E1E1E" d="M17.197 41.715c1.275.33 2.482-.346 2.698-1.519-1.127-.277-2.332.393-2.698 1.519Zm-.613-4.762c-.474 1.08.053 2.3 1.185 2.703.325-1.124-.2-2.35-1.185-2.703Zm1.185 2.704c-1.093-.388-2.36.16-2.835 1.243 1.235.455 2.504-.098 2.835-1.243Zm-2.973-3.555c-.579 1.027-.174 2.29.912 2.806.436-1.09.033-2.359-.912-2.806Zm.912 2.806c-1.049-.497-2.365-.074-2.945.957 1.184.574 2.503.146 2.945-.957ZM13.1 35.077c-.678.968-.397 2.258.63 2.883.546-1.048.267-2.343-.63-2.883Z"/><path fill="#1E1E1E" d="M13.732 37.96c-.991-.603-2.347-.306-3.025.66 1.121.689 2.48.386 3.025-.66Zm-2.214-4.075c-.779.905-.618 2.209.342 2.93.649-.99.492-2.298-.342-2.93Zm.342 2.931c-.929-.697-2.314-.526-3.076.36 1.042.802 2.43.626 3.075-.36Zm-1.8-4.272c-.872.833-.833 2.138.052 2.95.745-.923.71-2.232-.052-2.95Z"/><path fill="#1E1E1E" d="M7.018 35.55c.95.906 2.358.86 3.094-.056-.855-.785-2.258-.742-3.094.056Zm1.724-4.485c-.955.748-1.042 2.05-.237 2.942.833-.848.917-2.147.237-2.942ZM5.416 33.76c.85 1.001 2.264 1.085 3.085.248-.777-.862-2.179-.956-3.085-.248Zm2.157-4.294c-1.023.65-1.245 1.94-.525 2.903.915-.764 1.117-2.041.525-2.903Zm-.529 2.903c-.696-.929-2.074-1.166-3.046-.55.741 1.085 2.15 1.301 3.046.55Zm-.476-4.609c-1.08.545-1.437 1.811-.81 2.836.989-.67 1.307-1.917.81-2.836Z"/><path fill="#1E1E1E" d="M5.759 30.597c-.608-.989-1.949-1.364-2.978-.848.28.585.833.95 1.365 1.106a1.95 1.95 0 0 0 1.613-.258ZM5.74 27.48c.204-.501.168-1.011-.003-1.516-.538.216-.99.638-1.169 1.128a2.033 2.033 0 0 0 .083 1.613 2.354 2.354 0 0 0 1.088-1.225Zm-1.09 1.226a2.238 2.238 0 0 0-1.23-1.112c-.538-.197-1.091-.252-1.649-.027.215.613.735 1.028 1.248 1.236a1.954 1.954 0 0 0 1.632-.098Zm.289-3.103c.255-.479.265-.988.15-1.508-.557.161-1.05.536-1.278 1.006a2.032 2.032 0 0 0-.076 1.613 2.35 2.35 0 0 0 1.204-1.11Z"/><path fill="#1E1E1E" d="M3.737 26.716a2.242 2.242 0 0 0-1.116-1.228c-.515-.25-1.059-.36-1.637-.192.148.633.63 1.096 1.118 1.354a1.956 1.956 0 0 0 1.635.066Zm.593-3.059c.302-.45.362-.956.3-1.486-.57.105-1.099.43-1.371.875a2.03 2.03 0 0 0-.236 1.597 2.352 2.352 0 0 0 1.308-.986Z"/><path fill="#1E1E1E" d="M1.403 24.416a1.955 1.955 0 0 0 1.62.228 2.244 2.244 0 0 0-.99-1.332c-.487-.3-1.017-.463-1.608-.354.084.644.517 1.153.978 1.458Zm2.516-2.756c.343-.419.458-.916.442-1.45-.579.049-1.133.32-1.448.735a2.032 2.032 0 0 0-.394 1.566 2.35 2.35 0 0 0 1.4-.851Z"/><path fill="#1E1E1E" d="M.93 22.124c.446.35 1.01.496 1.59.388a2.241 2.241 0 0 0-.85-1.424c-.458-.347-.971-.56-1.57-.51.026.647.401 1.197.83 1.546Zm3.347-3.894c-1.203-.035-2.11.91-2.05 2.11 1.184-.119 2.073-1.063 2.05-2.11Z"/><path fill="#1E1E1E" d="M2.228 20.34c-.06-1.16-1.07-2.127-2.228-2.161.022 1.313 1.061 2.28 2.228 2.16Zm2.167-4.09c-1.169-.15-2.243.697-2.256 1.9 1.183-.003 2.135-.86 2.256-1.9Z"/><path fill="#1E1E1E" d="M2.141 18.15c.01-1.162-.82-2.218-1.995-2.368-.148 1.308.817 2.372 1.995 2.368Zm2.571-3.855c-1.151-.265-2.3.473-2.436 1.667 1.176.112 2.22-.643 2.436-1.667Z"/><path fill="#1E1E1E" d="M2.276 15.962c.13-1.154-.598-2.288-1.749-2.553-.27 1.289.574 2.442 1.75 2.553Zm2.936-3.58C4.1 12.005 2.88 12.624 2.63 13.8c1.162.228 2.261-.423 2.583-1.418Z"/><path fill="#1E1E1E" d="M2.631 13.799c.24-1.136-.368-2.336-1.492-2.716-.402 1.255.337 2.49 1.492 2.716ZM5.91 10.53c-1.073-.486-2.353.006-2.719 1.152 1.136.344 2.3-.192 2.718-1.151Zm-2.719 1.15c.35-1.107-.129-2.36-1.208-2.848-.525 1.209.082 2.51 1.208 2.849Zm3.593-2.926c-1.025-.593-2.334-.224-2.816.878 1.09.452 2.307.037 2.816-.878Zm-2.816.877c.463-1.064.097-2.365-.923-2.955-.638 1.151-.17 2.503.923 2.955Zm3.86-2.559c-.955-.687-2.303-.454-2.888.597 1.044.56 2.287.261 2.888-.597Zm-2.888.596c.563-1.016.335-2.341-.628-3.033-.752 1.08-.41 2.477.628 3.033Zm37.794-1.36a2.318 2.318 0 0 0-1.955-2.632 2.318 2.318 0 0 0 1.955 2.632ZM25.097 31.977l-.807-1.619-.794 1.626-1.789.267 1.3 1.258-.298 1.784 1.598-.849 1.604.835-.313-1.781 1.29-1.268-1.79-.253Zm-5.504-.457-.58-1.162-.57 1.167-1.284.192.934.903-.215 1.281 1.148-.609 1.152.6-.225-1.28.926-.91-1.286-.182Zm-3.937-.327-.416-.835-.41.838-.922.138.67.648-.153.92.823-.437.828.43-.162-.918.665-.654-.923-.13Zm14.503.327-.58-1.162-.57 1.167-1.284.192.933.903-.214 1.281 1.147-.609 1.152.6-.225-1.28.927-.91-1.286-.182Zm3.611-.327-.417-.835-.41.838-.921.138.67.648-.154.92.824-.437.827.43-.161-.918.665-.654-.924-.13Zm4.541-5.338H10.19v2.222h28.121v-2.223Zm-.904-16.272h.904V7.361L24.251 3.34 10.19 7.36v2.223h27.216ZM24.269 5.894a.976.976 0 1 1 0 1.953.976.976 0 0 1 0-1.953Zm11.256 6.329v-.872h1.883v-1.319H11.096v1.319h1.883v.871h.646v10.992h-.646v.872h-1.883v1.319h26.312v-1.32h-1.883v-.87h-.647V12.222h.647Zm-13.129 10.99h-.647v.872h-3.766v-.872h-.647v-10.99h.647v-.872h3.766v.871h.647v10.992Zm8.771 0h-.647v.872h-3.767v-.872h-.646v-10.99h.646v-.872h3.767v.871h.647v10.992ZM59.154 35.81c.38-.533.685-1.168.913-1.904.229-.761.343-1.56.343-2.398V13.845a7.92 7.92 0 0 0-.343-2.36c-.228-.762-.532-1.409-.913-1.942v-.19h7.08v.19c-.38.533-.685 1.18-.913 1.942a7.92 7.92 0 0 0-.343 2.36v7.994h12.296v-7.994a7.92 7.92 0 0 0-.343-2.36c-.228-.762-.533-1.409-.913-1.942v-.19h7.08v.19c-.38.533-.685 1.18-.914 1.942a7.92 7.92 0 0 0-.342 2.36v17.663c0 .838.114 1.637.342 2.398.229.736.533 1.37.914 1.904V36h-7.08v-.19c.38-.533.685-1.168.913-1.904.229-.761.343-1.56.343-2.398v-8.793H64.978v8.793c0 .838.114 1.637.343 2.398.228.736.533 1.37.913 1.904V36h-7.08v-.19Zm45.574-.876c-.279.457-.698.825-1.256 1.104-.559.28-1.193.419-1.904.419-.964 0-1.738-.229-2.322-.685-.584-.457-.926-1.117-1.028-1.98l-.038-.304h-.114a5.85 5.85 0 0 1-2.17 2.208c-.913.507-2.005.76-3.273.76-1.523 0-2.716-.367-3.579-1.103s-1.294-1.713-1.294-2.931c0-1.396.495-2.55 1.485-3.464 1.015-.94 2.322-1.625 3.92-2.056a18.344 18.344 0 0 1 5.063-.685v-2.741c0-1.396-.444-2.538-1.332-3.426-.863-.888-2.03-1.332-3.502-1.332-1.117 0-2.106.266-2.97.799-.837.533-1.497 1.269-1.979 2.208h-.38c.406-1.599 1.256-2.868 2.55-3.807 1.32-.939 2.868-1.408 4.644-1.408 2.234 0 3.997.647 5.292 1.941 1.294 1.269 1.941 2.944 1.941 5.025v10.088c0 .482.101.85.304 1.104.229.228.508.342.838.342.431 0 .736-.089.914-.266l.19.19Zm-9.783-.609c.939 0 1.713-.343 2.322-1.028.634-.685.951-1.472.951-2.36v-3.883c-1.852.051-3.324.457-4.415 1.218-1.066.736-1.6 1.777-1.6 3.122 0 .964.267 1.7.8 2.208.533.482 1.18.723 1.942.723Zm13.124 1.485c.685-.965 1.028-2.272 1.028-3.921v-9.44c0-.94-.114-1.701-.343-2.285a3.921 3.921 0 0 0-.952-1.56v-.191l5.368-1.903h.19v4.796h.191c.431-1.548 1.167-2.728 2.207-3.54 1.066-.838 2.526-1.256 4.378-1.256v3.997h-2.017c-1.574 0-2.767.342-3.579 1.027-.786.686-1.18 1.79-1.18 3.312v7.043c0 1.65.343 2.956 1.028 3.92V36h-6.319v-.19Zm23.618.647c-3.071 0-5.748-.761-8.032-2.284V13.578c0-.938-.102-1.7-.305-2.284a3.931 3.931 0 0 0-.951-1.56v-.19l5.329-1.904h.191v12.448h.19a6.74 6.74 0 0 1 2.398-2.589c1.041-.66 2.221-.99 3.54-.99 1.523 0 2.855.407 3.997 1.219s2.018 1.941 2.627 3.388c.609 1.446.914 3.096.914 4.948 0 1.777-.419 3.465-1.257 5.063a9.914 9.914 0 0 1-3.502 3.883c-1.497.965-3.21 1.447-5.139 1.447Zm.191-.838c1.649 0 2.918-.774 3.806-2.322.888-1.548 1.333-3.654 1.333-6.319 0-2.512-.445-4.48-1.333-5.9-.863-1.447-2.043-2.17-3.54-2.17-1.167 0-2.144.368-2.931 1.104-.787.736-1.218 1.662-1.294 2.779v9.593c.076.812.469 1.56 1.18 2.246.736.66 1.662.99 2.779.99Zm22.26.838c-1.827 0-3.464-.432-4.911-1.294-1.421-.863-2.525-2.056-3.311-3.579-.787-1.523-1.18-3.223-1.18-5.1 0-1.879.393-3.58 1.18-5.102.786-1.523 1.89-2.715 3.311-3.578 1.447-.863 3.084-1.294 4.911-1.294 1.827 0 3.452.431 4.873 1.294a8.768 8.768 0 0 1 3.35 3.578c.786 1.523 1.18 3.223 1.18 5.101 0 1.878-.394 3.578-1.18 5.101-.787 1.523-1.904 2.716-3.35 3.579-1.421.862-3.046 1.294-4.873 1.294Zm0-.838c1.574 0 2.754-.837 3.54-2.512.812-1.7 1.219-3.908 1.219-6.624 0-2.715-.407-4.91-1.219-6.585-.786-1.7-1.966-2.55-3.54-2.55-1.548 0-2.728.85-3.54 2.55-.812 1.675-1.218 3.87-1.218 6.585 0 2.716.406 4.924 1.218 6.624.812 1.675 1.992 2.512 3.54 2.512Zm13.597.19c.685-.964 1.027-2.27 1.027-3.92v-9.44c0-.94-.114-1.701-.342-2.285a3.921 3.921 0 0 0-.952-1.56v-.191l5.368-1.903h.19v4.796h.19c.432-1.548 1.168-2.728 2.208-3.54 1.066-.838 2.525-1.256 4.378-1.256v3.997h-2.018c-1.573 0-2.766.342-3.578 1.027-.787.686-1.18 1.79-1.18 3.312v7.043c0 1.65.343 2.956 1.028 3.92V36h-6.319v-.19Z"/></svg>