<svg xmlns:xlink="http://www.w3.org/1999/xlink"  xmlns="http://www.w3.org/2000/svg" viewBox="0 0 24 24" fill="currentColor" aria-hidden="true" data-slot="icon" color="var(--token-0c0da8ee-ad07-4b88-89f0-1d9219dbdfa9, rgb(30, 30, 30))" style="width: 100%; height: 100%;"><path fill-rule="evenodd" d="M6.75 5.25a.75.75 0 0 1 .75-.75H9a.75.75 0 0 1 .75.75v13.5a.75.75 0 0 1-.75.75H7.5a.75.75 0 0 1-.75-.75V5.25Zm7.5 0A.75.75 0 0 1 15 4.5h1.5a.75.75 0 0 1 .75.75v13.5a.75.75 0 0 1-.75.75H15a.75.75 0 0 1-.75-.75V5.25Z" clip-rule="evenodd"></path></svg>