<svg xmlns:xlink="http://www.w3.org/1999/xlink"  xmlns="http://www.w3.org/2000/svg" width="16" height="12" fill="none"><path fill="#fff" d="m14.536.202-.248.09L.818 5.146a.451.451 0 0 0 .04.872l3.486.955.65 1.909.651 1.909a.619.619 0 0 0 .998.222l1.802-1.702 3.537 2.4c.432.294 1.049.075 1.16-.41L15.483.95c.114-.513-.425-.934-.948-.748ZM12.816 2.5 6.732 7.475l-.287.234a.31.31 0 0 0-.114.202l-.064.53-.176 1.485a.068.068 0 0 1-.137.011l-.495-1.485-.51-1.52a.308.308 0 0 1 .146-.364l6.333-3.63 1.192-.682c.173-.1.35.119.198.244Z"/></svg>